{
	"asset":{
		"generator":"Khronos glTF Blender I/O v4.2.60",
		"version":"2.0"
	},
	"scene":0,
	"scenes":[
		{
			"name":"Scene",
			"nodes":[
				0
			]
		}
	],
	"nodes":[
		{
			"mesh":0,
			"name":"model",
			"rotation":[
				0.7071069478988647,
				0,
				0,
				0.7071066498756409
			],
			"scale":[
				3.1788275241851807,
				3.178828001022339,
				3.178828001022339
			],
			"translation":[
				0,
				3.0637078285217285,
				0
			]
		}
	],
	"materials":[
		{
			"doubleSided":true,
			"name":"Material.002",
			"normalTexture":{
				"index":0
			},
			"pbrMetallicRoughness":{
				"baseColorTexture":{
					"index":1
				},
				"metallicRoughnessTexture":{
					"index":2
				}
			}
		}
	],
	"meshes":[
		{
			"name":"model.001",
			"primitives":[
				{
					"attributes":{
						"POSITION":0,
						"NORMAL":1,
						"TEXCOORD_0":2
					},
					"indices":3,
					"material":0
				}
			]
		}
	],
	"textures":[
		{
			"sampler":0,
			"source":0
		},
		{
			"sampler":0,
			"source":1
		},
		{
			"sampler":0,
			"source":2
		}
	],
	"images":[
		{
			"mimeType":"image/png",
			"name":"texture_normal",
			"uri":"texture_normal.png"
		},
		{
			"mimeType":"image/png",
			"name":"texture_diffuse",
			"uri":"texture_diffuse.png"
		},
		{
			"mimeType":"image/png",
			"name":"texture_metallic-texture_roughness",
			"uri":"texture_metallic-texture_roughness.png"
		}
	],
	"accessors":[
		{
			"bufferView":0,
			"componentType":5126,
			"count":20264,
			"max":[
				0.30988699197769165,
				0.29598599672317505,
				0.9513459801673889
			],
			"min":[
				-0.31129398941993713,
				-0.29682499170303345,
				-0.9515870213508606
			],
			"type":"VEC3"
		},
		{
			"bufferView":1,
			"componentType":5126,
			"count":20264,
			"type":"VEC3"
		},
		{
			"bufferView":2,
			"componentType":5126,
			"count":20264,
			"type":"VEC2"
		},
		{
			"bufferView":3,
			"componentType":5123,
			"count":103788,
			"type":"SCALAR"
		}
	],
	"bufferViews":[
		{
			"buffer":0,
			"byteLength":243168,
			"byteOffset":0,
			"target":34962
		},
		{
			"buffer":0,
			"byteLength":243168,
			"byteOffset":243168,
			"target":34962
		},
		{
			"buffer":0,
			"byteLength":162112,
			"byteOffset":486336,
			"target":34962
		},
		{
			"buffer":0,
			"byteLength":207576,
			"byteOffset":648448,
			"target":34963
		}
	],
	"samplers":[
		{
			"magFilter":9729,
			"minFilter":9987
		}
	],
	"buffers":[
		{
			"byteLength":856024,
			"uri":"avaroa.bin"
		}
	]
}
